<svg fill="none" xmlns="http://www.w3.org/2000/svg" viewBox="0 0 128 128"><rect width="128" height="128" rx="20" fill="#BF2A59"/><path fill-rule="evenodd" clip-rule="evenodd" d="m64.18 32.727-.18.18-.18-.18c-2.463-2.427-5.862-3.718-9.586-4.473-6.39-1.295-15.311-1.273-25.966-1.247-1.547.004-3.13.008-4.748.008H20V96.022h3.52c1.62 0 3.204-.003 4.75-.006 10.671-.02 19.516-.038 25.837 1.005 3.634.6 6.976 1.622 9.446 3.601.154.124.303.249.447.378.144-.129.293-.254.447-.378 2.47-1.98 5.812-3.001 9.446-3.601 6.321-1.043 15.165-1.026 25.837-1.005h.006c1.544.003 3.126.006 4.744.006H108V27.015h-3.52c-1.617 0-3.201-.004-4.748-.008-10.655-.026-19.577-.048-25.966 1.247-3.724.755-7.123 2.046-9.586 4.473Zm3.34 35.223V42.529c0-2.542.682-3.932 1.624-4.86 1.057-1.04 2.894-1.948 6.034-2.585.37-.075.75-.145 1.142-.21V66.51l2.905-2.466 5.015-4.257 5.015 4.257 2.905 2.466V33.983c2.36-.013 4.888-.008 7.587-.003l1.213.003v55.135l-2.111-.007h-.016c-10.244-.038-18.85-.07-25.053 1.16-2.247.446-4.38 1.09-6.26 2.068v-24.39Zm12.32-9.018V34.429c2.572-.238 5.499-.354 8.8-.409v24.912l-3.255-2.763-1.145-.972-1.145.972-3.255 2.763ZM58.856 37.669c.942.928 1.624 2.318 1.624 4.86v49.81c-1.88-.978-4.013-1.622-6.26-2.068-6.203-1.23-14.809-1.198-25.053-1.16l-2.127.007V33.983l1.213-.003c10.868-.02 18.946-.036 24.569 1.104 3.14.637 4.977 1.545 6.034 2.585ZM35.84 44.422c-.972 0-1.76.78-1.76 1.743 0 .963.788 1.743 1.76 1.743h15.84c.972 0 1.76-.78 1.76-1.743 0-.962-.788-1.743-1.76-1.743H35.84Zm-1.76 10.457c0-.962.788-1.742 1.76-1.742h15.84c.972 0 1.76.78 1.76 1.742 0 .963-.788 1.743-1.76 1.743H35.84c-.972 0-1.76-.78-1.76-1.743Zm1.76 6.972c-.972 0-1.76.78-1.76 1.743 0 .962.788 1.742 1.76 1.742h15.84c.972 0 1.76-.78 1.76-1.742 0-.963-.788-1.743-1.76-1.743H35.84Z" fill="#fff"/></svg>