<svg fill="none" xmlns="http://www.w3.org/2000/svg" viewBox="0 0 100 32"><path fill-rule="evenodd" clip-rule="evenodd" d="M38.615 24.715c-1.138 0-2.11-.268-2.917-.806A4.255 4.255 0 0 1 34 21.702l1.393-.805c.476 1.483 1.562 2.224 3.257 2.224.836 0 1.475-.172 1.916-.516.441-.345.662-.803.662-1.375 0-.584-.22-1.022-.662-1.314-.442-.292-1.179-.601-2.212-.928-.511-.164-.9-.295-1.167-.395a9.75 9.75 0 0 1-1.001-.455c-.4-.204-.7-.414-.897-.63-.221-.253-.4-.54-.532-.85a2.886 2.886 0 0 1-.235-1.19c0-1.063.372-1.907 1.115-2.532.743-.624 1.649-.937 2.717-.937.964 0 1.803.245 2.517.736a4.574 4.574 0 0 1 1.61 1.944l-1.358.788c-.522-1.261-1.445-1.892-2.769-1.892-.662 0-1.196.164-1.602.49-.407.328-.61.772-.61 1.332 0 .537.192.946.575 1.226.383.28 1.045.572 1.985.876.337.105.575.18.714.228.14.046.357.128.654.245.296.117.513.21.653.28.139.07.328.17.566.298.193.097.372.22.53.368.117.116.253.26.41.429.144.15.26.325.34.516.076.197.137.399.183.605.053.238.08.482.078.727 0 1.074-.389 1.93-1.167 2.566-.778.636-1.794.954-3.048.954Zm6.705-3.906c.151.783.508 1.39 1.071 1.822.563.432 1.257.648 2.082.648 1.15 0 1.985-.426 2.508-1.279l1.288.736c-.847 1.32-2.124 1.98-3.831 1.98-1.382 0-2.506-.436-3.37-1.306-.865-.87-1.298-1.97-1.298-3.301 0-1.32.424-2.417 1.272-3.293.847-.876 1.944-1.314 3.291-1.314 1.278 0 2.32.453 3.127 1.358.806.905 1.21 1.994 1.21 3.266 0 .229-.018.457-.052.683H45.32Zm3.013-3.87c-.813 0-1.486.23-2.02.691-.534.462-.865 1.078-.993 1.848h5.817c-.128-.829-.453-1.46-.975-1.892a2.784 2.784 0 0 0-1.829-.648Zm12.279-.465c-.616-.648-1.434-.972-2.456-.972-1.266 0-2.206.496-2.821 1.489V15.73h-1.516v8.757h1.516v-4.641c0-.981.232-1.708.696-2.18.465-.474 1.074-.71 1.829-.71.673 0 1.202.195 1.585.587.383.391.575.943.575 1.655v5.29h1.515V19.11c0-1.11-.308-1.988-.923-2.636Zm9.613-4.247h1.516v12.26h-1.516v-1.506c-.754 1.156-1.852 1.734-3.291 1.734-1.22 0-2.259-.447-3.118-1.34-.86-.893-1.289-1.982-1.288-3.266 0-1.285.429-2.374 1.288-3.267.86-.893 1.898-1.34 3.118-1.34 1.44 0 2.537.578 3.291 1.734v-5.01Zm-3.1 11.017c.883 0 1.62-.3 2.212-.902.592-.601.888-1.346.888-2.233 0-.888-.296-1.632-.888-2.234-.592-.6-1.33-.901-2.212-.901-.87 0-1.602.3-2.194.901-.592.602-.888 1.346-.888 2.234 0 .887.296 1.632.888 2.233.592.601 1.323.902 2.194.902Zm8.03-4.335c-.338-.204-.506-.476-.506-.815 0-.373.15-.662.453-.867.302-.204.667-.306 1.097-.306.929 0 1.55.374 1.864 1.12l1.271-.717a3.08 3.08 0 0 0-1.245-1.34c-.552-.321-1.182-.482-1.89-.482-.882 0-1.617.245-2.203.736-.586.49-.88 1.115-.88 1.874 0 .584.169 1.063.505 1.436.331.37.751.647 1.22.806.476.163.952.306 1.428.429.428.103.838.268 1.219.49.337.205.505.476.505.815 0 .409-.163.71-.487.902-.326.193-.738.289-1.237.289-.534 0-.993-.123-1.376-.368a1.846 1.846 0 0 1-.784-.998l-1.306.753c.255.619.685 1.115 1.289 1.489.603.373 1.33.56 2.177.56.952 0 1.733-.24 2.342-.718.61-.479.915-1.115.915-1.91 0-.595-.169-1.082-.505-1.462a2.769 2.769 0 0 0-1.22-.805 21.903 21.903 0 0 0-1.428-.42 4.51 4.51 0 0 1-1.219-.491Zm12.852-3.18h1.515v8.758h-1.515v-1.506c-.755 1.156-1.852 1.734-3.291 1.734-1.22 0-2.259-.447-3.118-1.34-.86-.893-1.289-1.982-1.289-3.266 0-1.285.43-2.374 1.289-3.267.86-.893 1.898-1.34 3.118-1.34 1.44 0 2.536.578 3.291 1.734V15.73Zm-3.1 7.515c.882 0 1.62-.3 2.212-.902.592-.601.888-1.346.888-2.233 0-.888-.296-1.632-.888-2.234-.592-.6-1.33-.902-2.212-.902-.87 0-1.602.301-2.194.902-.592.602-.889 1.346-.888 2.234 0 .887.296 1.631.888 2.233.592.601 1.323.902 2.194.902Zm14.09-7.514h-1.62l-2.508 6.866-2.96-6.866h-1.62l3.797 8.722-.157.333c-.5 1.273-1.283 1.868-2.351 1.787v1.419c.87.058 1.64-.173 2.307-.692.668-.52 1.187-1.276 1.56-2.269l3.552-9.3Z" fill="#231F20"/><path fill-rule="evenodd" clip-rule="evenodd" d="m16 6.076.061-.064c.84-.852 1.999-1.306 3.268-1.571 2.178-.456 5.22-.448 8.852-.438l1.619.002H31V28.252h-1.2c-.552 0-1.091-.002-1.617-.003h-.002c-3.638-.008-6.653-.014-8.808.353-1.24.21-2.379.57-3.22 1.265A4 4 0 0 0 16 30a4 4 0 0 0-.152-.133c-.842-.695-1.982-1.054-3.22-1.265-2.156-.367-5.17-.36-8.809-.353L2.2 28.25H1V4.005h1.2l1.619-.002c3.632-.01 6.673-.018 8.852.438 1.27.265 2.428.719 3.268 1.571l.061.064Zm1.2 3.38v17.501c.641-.344 1.368-.57 2.134-.727 2.115-.432 5.049-.42 8.54-.407h.006l.72.002V6.453h-.413c-.92-.002-1.782-.004-2.587 0v11.429l-.99-.866-1.71-1.496-1.71 1.496-.99.866V6.766c-.133.023-.263.048-.39.074-1.07.224-1.696.543-2.056.909-.322.326-.554.814-.554 1.707Zm4.2-2.846v8.61l1.11-.971.39-.342.39.342 1.11.97V6.467c-1.125.019-2.123.06-3 .143Zm-6.6 2.846c0-.893-.232-1.381-.554-1.707-.36-.366-.986-.685-2.057-.909-1.917-.4-4.67-.395-8.376-.387H3.4v19.372l.725-.002c3.492-.014 6.426-.025 8.54.407.767.157 1.494.383 2.135.727v-17.5Zm-9 1.277c0-.338.269-.612.6-.612h5.4c.331 0 .6.274.6.612a.606.606 0 0 1-.6.613H6.4a.606.606 0 0 1-.6-.613Zm.6 2.45c-.331 0-.6.274-.6.612 0 .338.269.613.6.613h5.4c.331 0 .6-.275.6-.613a.606.606 0 0 0-.6-.612H6.4Zm-.6 3.674c0-.338.269-.613.6-.613h5.4c.331 0 .6.275.6.613a.606.606 0 0 1-.6.612H6.4a.606.606 0 0 1-.6-.612Zm77.248-3.774c.747 0 1.357-.347 1.645-.928h.088V13h1.377V5.559h-1.42v2.915h-.084c-.278-.596-.879-.948-1.606-.948-1.353 0-2.192 1.06-2.192 2.774 0 1.719.834 2.783 2.192 2.783Zm.483-4.365c.757 0 1.221.61 1.221 1.592 0 .986-.459 1.586-1.22 1.586-.763 0-1.217-.595-1.217-1.591 0-.987.46-1.587 1.216-1.587Zm6.49 4.4c1.655 0 2.65-1.05 2.65-2.813 0-1.748-1.01-2.808-2.65-2.808-1.641 0-2.652 1.065-2.652 2.808 0 1.762.996 2.812 2.651 2.812Zm0-1.163c-.762 0-1.192-.6-1.192-1.65 0-1.035.435-1.646 1.192-1.646.751 0 1.19.61 1.19 1.646 0 1.045-.434 1.65-1.19 1.65Zm6.181-4.458c1.426 0 2.28.791 2.398 2.017h-1.328c-.098-.513-.464-.85-1.07-.85-.766 0-1.196.571-1.196 1.63 0 1.075.434 1.656 1.196 1.656.581 0 .962-.283 1.07-.815H98.6c-.118 1.206-.996 1.982-2.398 1.982-1.68 0-2.632-1.015-2.632-2.822 0-1.787.948-2.798 2.632-2.798Z" fill="#BF2A59"/></svg>