<svg width="100" height="36" viewBox="0 0 100 36" fill="none" xmlns="http://www.w3.org/2000/svg">
<path d="M22.3337 0.559443C22.7026 0.346468 23.1571 0.346468 23.526 0.559443L26.9801 2.55366C27.3489 2.76664 27.5762 3.16023 27.5762 3.58618V7.57462C27.5762 8.00057 27.3489 8.39417 26.9801 8.60714L23.526 10.6014C23.1571 10.8143 22.7026 10.8143 22.3337 10.6014L18.8796 8.60714C18.5107 8.39417 18.2835 8.00057 18.2835 7.57462V3.58618C18.2835 3.16023 18.5108 2.76664 18.8796 2.55366L22.3337 0.559443Z" fill="#A12141"/>
<path d="M16.3725 10.0975C16.7414 9.88448 17.1959 9.88448 17.5648 10.0975L21.0189 12.0917C21.3878 12.3046 21.615 12.6982 21.615 13.1242V17.1126C21.615 17.5386 21.3878 17.9322 21.0189 18.1452L17.5648 20.1394C17.1959 20.3523 16.7414 20.3523 16.3725 20.1394L12.9185 18.1452C12.5496 17.9322 12.3223 17.5386 12.3223 17.1126V13.1242C12.3223 12.6982 12.5496 12.3046 12.9185 12.0917L16.3725 10.0975Z" fill="#A12141"/>
<path d="M10.4112 19.6355C10.7801 19.4225 11.2346 19.4225 11.6035 19.6355L15.0576 21.6297C15.4265 21.8427 15.6537 22.2363 15.6537 22.6622V26.6506C15.6537 27.0766 15.4265 27.4702 15.0576 27.6832L11.6035 29.6774C11.2346 29.8904 10.7801 29.8904 10.4112 29.6774L9.84578 29.3509L8.68419 28.6803L7.52261 28.0096L6.95715 27.6832C6.58826 27.4702 6.36102 27.0766 6.36102 26.6506V22.6622C6.36102 22.2363 6.58826 21.8427 6.95715 21.6297L10.4112 19.6355Z" fill="#A12141"/>
<path d="M4.44993 10.0975C4.81882 9.88448 5.2733 9.88448 5.64219 10.0975L9.09627 12.0917C9.46516 12.3046 9.6924 12.6982 9.6924 13.1242V17.1126C9.6924 17.5386 9.46516 17.9322 9.09627 18.1452L5.64219 20.1394C5.2733 20.3523 4.81882 20.3523 4.44993 20.1394L0.995845 18.1452C0.626961 17.9322 0.399719 17.5386 0.399719 17.1126V13.1242C0.399719 12.6982 0.626961 12.3046 0.995845 12.0917L4.44993 10.0975Z" fill="#A12141"/>
<path d="M37.2905 23.9291C36.0863 23.9291 35.061 23.6548 34.2145 23.1064C33.3799 22.558 32.7957 21.8068 32.4619 20.853L34.2323 19.8158C34.7331 21.2226 35.7704 21.9261 37.3441 21.9261C38.1191 21.9261 38.6973 21.777 39.0789 21.479C39.4723 21.169 39.669 20.7696 39.669 20.2808C39.669 19.7681 39.4604 19.3806 39.0431 19.1183C38.6258 18.8441 37.8866 18.546 36.8255 18.2241C36.2294 18.0453 35.7465 17.8784 35.3769 17.7234C35.0073 17.5684 34.6139 17.3538 34.1966 17.0796C33.7912 16.7934 33.4872 16.4417 33.2845 16.0244C33.0818 15.6071 32.9805 15.1183 32.9805 14.558C32.9805 13.4492 33.3739 12.5729 34.1608 11.929C34.9477 11.2733 35.8955 10.9454 37.0043 10.9454C38.0058 10.9454 38.8821 11.1898 39.6333 11.6787C40.3844 12.1675 40.9626 12.8411 41.368 13.6995L39.6333 14.701C39.1087 13.5326 38.2324 12.9484 37.0043 12.9484C36.4082 12.9484 35.9313 13.0915 35.5736 13.3776C35.216 13.6518 35.0371 14.0274 35.0371 14.5043C35.0371 14.9693 35.216 15.3389 35.5736 15.6131C35.9432 15.8754 36.6049 16.1556 37.5587 16.4536C38.0356 16.6086 38.3814 16.7279 38.596 16.8113C38.8225 16.8828 39.1325 17.0021 39.5259 17.169C39.9313 17.3359 40.2353 17.5028 40.438 17.6697C40.6407 17.8366 40.8553 18.0453 41.0818 18.2957C41.3203 18.546 41.4872 18.8322 41.5826 19.1541C41.678 19.476 41.7257 19.8396 41.7257 20.245C41.7257 21.3776 41.3143 22.2778 40.4917 22.9454C39.6809 23.6012 38.6139 23.9291 37.2905 23.9291Z" fill="black"/>
<path d="M44.6005 20.0483C44.7435 20.7279 45.0714 21.2524 45.5841 21.622C46.0968 21.9797 46.7227 22.1586 47.4619 22.1586C48.4872 22.1586 49.2562 21.789 49.7689 21.0498L51.3605 21.9797C50.4783 23.2793 49.1728 23.9291 47.444 23.9291C45.9894 23.9291 44.8151 23.4879 43.9209 22.6057C43.0267 21.7115 42.5796 20.5848 42.5796 19.2256C42.5796 17.8903 43.0207 16.7755 43.903 15.8814C44.7853 14.9752 45.9179 14.5222 47.3009 14.5222C48.6124 14.5222 49.6854 14.9812 50.52 15.8992C51.3665 16.8173 51.7898 17.932 51.7898 19.2435C51.7898 19.4462 51.7659 19.7144 51.7182 20.0483H44.6005ZM44.5826 18.4745H49.8404C49.7093 17.7472 49.4053 17.1988 48.9284 16.8292C48.4634 16.4596 47.9149 16.2748 47.283 16.2748C46.5677 16.2748 45.9716 16.4715 45.4947 16.865C45.0178 17.2584 44.7137 17.7949 44.5826 18.4745Z" fill="black"/>
<path d="M57.6562 14.5222C58.6815 14.5222 59.5101 14.8501 60.142 15.5058C60.7739 16.1615 61.0899 17.0617 61.0899 18.2062V23.6966H59.1584V18.403C59.1584 17.7353 58.9796 17.2226 58.6219 16.865C58.2642 16.5073 57.7754 16.3284 57.1554 16.3284C56.4759 16.3284 55.9274 16.5431 55.5101 16.9723C55.0929 17.3896 54.8842 18.0334 54.8842 18.9037V23.6966H52.9528V14.7547H54.8842V15.8992C55.4684 14.9812 56.3924 14.5222 57.6562 14.5222Z" fill="black"/>
<path d="M69.715 11.1779H71.6465V23.6966H69.715V22.4089C68.9878 23.4223 67.9445 23.9291 66.5854 23.9291C65.3574 23.9291 64.3082 23.476 63.4378 22.5699C62.5675 21.6519 62.1323 20.5371 62.1323 19.2256C62.1323 17.9022 62.5675 16.7875 63.4378 15.8814C64.3082 14.9752 65.3574 14.5222 66.5854 14.5222C67.9445 14.5222 68.9878 15.0229 69.715 16.0244V11.1779ZM64.8685 21.2823C65.405 21.8188 66.0787 22.087 66.8894 22.087C67.7001 22.087 68.3738 21.8188 68.9103 21.2823C69.4468 20.7338 69.715 20.0483 69.715 19.2256C69.715 18.403 69.4468 17.7234 68.9103 17.1869C68.3738 16.6384 67.7001 16.3642 66.8894 16.3642C66.0787 16.3642 65.405 16.6384 64.8685 17.1869C64.332 17.7234 64.0638 18.403 64.0638 19.2256C64.0638 20.0483 64.332 20.7338 64.8685 21.2823Z" fill="black"/>
<path d="M75.0436 17.2226C75.0436 17.5207 75.2045 17.7591 75.5264 17.938C75.8603 18.1049 76.2597 18.2539 76.7246 18.3851C77.2015 18.5043 77.6784 18.6474 78.1553 18.8143C78.6323 18.9812 79.0317 19.2673 79.3536 19.6727C79.6874 20.0662 79.8543 20.5669 79.8543 21.175C79.8543 22.0334 79.5205 22.707 78.8528 23.1958C78.1971 23.6846 77.3685 23.9291 76.367 23.9291C75.4847 23.9291 74.7276 23.7443 74.0957 23.3747C73.4638 23.0051 73.0048 22.4924 72.7187 21.8367L74.3819 20.8709C74.6919 21.7294 75.3536 22.1586 76.367 22.1586C77.3804 22.1586 77.8871 21.8247 77.8871 21.1571C77.8871 20.8709 77.7202 20.6384 77.3863 20.4596C77.0644 20.2808 76.665 20.1317 76.1881 20.0125C75.7232 19.8814 75.2522 19.7323 74.7753 19.5654C74.2984 19.3985 73.893 19.1243 73.5592 18.7428C73.2373 18.3493 73.0764 17.8545 73.0764 17.2584C73.0764 16.4357 73.3863 15.774 74.0063 15.2733C74.6382 14.7726 75.4191 14.5222 76.3491 14.5222C77.0883 14.5222 77.744 14.6891 78.3163 15.0229C78.9005 15.3448 79.3476 15.7979 79.6576 16.3821L78.0302 17.2942C77.7202 16.6146 77.1598 16.2748 76.3491 16.2748C75.9795 16.2748 75.6695 16.3583 75.4191 16.5252C75.1688 16.6802 75.0436 16.9127 75.0436 17.2226Z" fill="black"/>
<path d="M87.8706 14.7547H89.802V23.6966H87.8706V22.4089C87.1433 23.4223 86.1001 23.9291 84.7409 23.9291C83.5129 23.9291 82.4637 23.476 81.5934 22.5699C80.723 21.6519 80.2878 20.5371 80.2878 19.2256C80.2878 17.9022 80.723 16.7875 81.5934 15.8814C82.4637 14.9752 83.5129 14.5222 84.7409 14.5222C86.1001 14.5222 87.1433 15.0229 87.8706 16.0244V14.7547ZM83.0241 21.2823C83.5606 21.8188 84.2342 22.087 85.0449 22.087C85.8557 22.087 86.5293 21.8188 87.0658 21.2823C87.6023 20.7338 87.8706 20.0483 87.8706 19.2256C87.8706 18.403 87.6023 17.7234 87.0658 17.1869C86.5293 16.6384 85.8557 16.3642 85.0449 16.3642C84.2342 16.3642 83.5606 16.6384 83.0241 17.1869C82.4876 17.7234 82.2193 18.403 82.2193 19.2256C82.2193 20.0483 82.4876 20.7338 83.0241 21.2823Z" fill="black"/>
<path d="M97.5436 14.7547H99.6002L96.1666 23.9827C95.3081 26.2957 93.8536 27.3925 91.8029 27.2733V25.4671C92.411 25.5028 92.8998 25.3717 93.2694 25.0736C93.639 24.7875 93.943 24.3344 94.1815 23.7144L94.2709 23.5356L90.4795 14.7547H92.5898L95.2545 21.2465L97.5436 14.7547Z" fill="black"/>
</svg>
